# xmcd
#
# Track frame offsets:
#       150
#       36052
#       56649
#       90102
#       129405
#       164466
#
# Disc length: 2618 seconds
#
# Revision: 0
# Processed by: cddbd v1.4PL0 Copyright (c) Steve Scherf et al.
# Submitted via: WhereIsIt 3.50
#
DISCID=400a3806
DTITLE=Eric Clapton - Just One Night [CD2]
DYEAR=1980
DGENRE=Blues
TTITLE0=Double Trouble
TTITLE1=Setting Me Up
TTITLE2=Blues Power
TTITLE3=Rambling On My Mind
TTITLE4=Cocaine
TTITLE5=Further On Up The Road
EXTD=
EXTT0=
EXTT1=
EXTT2=
EXTT3=
EXTT4=
EXTT5=
PLAYORDER=
